<?xml version="1.0" encoding="utf-8" standalone="no"?>
<!DOCTYPE svg PUBLIC "-//W3C//DTD SVG 1.1//EN"
  "http://www.w3.org/Graphics/SVG/1.1/DTD/svg11.dtd">
<svg xmlns:xlink="http://www.w3.org/1999/xlink" width="432pt" height="288pt" viewBox="0 0 432 288" xmlns="http://www.w3.org/2000/svg" version="1.1">
 <metadata>
  <rdf:RDF xmlns:dc="http://purl.org/dc/elements/1.1/" xmlns:cc="http://creativecommons.org/ns#" xmlns:rdf="http://www.w3.org/1999/02/22-rdf-syntax-ns#">
   <cc:Work>
    <dc:type rdf:resource="http://purl.org/dc/dcmitype/StillImage"/>
    <dc:date>2021-12-06T14:23:24.273453</dc:date>
    <dc:format>image/svg+xml</dc:format>
    <dc:creator>
     <cc:Agent>
      <dc:title>Matplotlib v3.5.0, https://matplotlib.org/</dc:title>
     </cc:Agent>
    </dc:creator>
   </cc:Work>
  </rdf:RDF>
 </metadata>
 <defs>
  <style type="text/css">*{stroke-linejoin: round; stroke-linecap: butt}</style>
 </defs>
 <g id="figure_1">
  <g id="patch_1">
   <path d="M 0 288 
L 432 288 
L 432 0 
L 0 0 
L 0 288 
z
" style="fill: none"/>
  </g>
  <g id="axes_1">
   <g id="patch_2">
    <path d="M 54 252 
L 388.8 252 
L 388.8 34.56 
L 54 34.56 
z
" style="fill: #ffffff"/>
   </g>
   <g id="matplotlib.axis_1">
    <g id="xtick_1">
     <g id="line2d_1">
      <defs>
       <path id="m4b07479f3f" d="M 0 0 
L 0 3.5 
" style="stroke: #000000; stroke-width: 0.8"/>
      </defs>
      <g>
       <use xlink:href="#m4b07479f3f" x="103.036364" y="252" style="stroke: #000000; stroke-width: 0.8"/>
      </g>
     </g>
     <g id="text_1">
      <!-- 2 -->
      <g transform="translate(100.062926 265.914062)scale(0.1 -0.1)">
       <defs>
        <path id="EBSHunminjeongeumL-32" d="M 3356 -213 
Q 3356 -238 3338 -238 
L 475 -238 
Q 381 -238 315 -175 
Q 250 -113 250 -25 
Q 250 50 313 113 
L 306 113 
Q 738 531 1166 947 
Q 1594 1363 1950 1713 
Q 2300 2063 2537 2319 
Q 2775 2575 2831 2675 
L 2831 3125 
Q 2831 3281 2759 3368 
Q 2688 3456 2594 3506 
Q 2494 3550 2397 3562 
Q 2300 3575 2250 3575 
L 538 3575 
Q 519 3575 519 3600 
L 519 3963 
Q 519 3988 538 3988 
L 2250 3988 
Q 2444 3988 2631 3938 
Q 2819 3888 2969 3781 
Q 3113 3675 3203 3512 
Q 3294 3350 3294 3125 
L 3294 2625 
Q 3294 2588 3256 2497 
Q 3219 2406 3075 2238 
Q 2650 1825 2340 1528 
Q 2031 1231 1813 1019 
Q 1588 800 1441 659 
Q 1294 519 1200 425 
Q 1100 331 1040 275 
Q 981 219 938 175 
L 3338 175 
Q 3356 175 3356 150 
L 3356 -213 
z
" transform="scale(0.015625)"/>
       </defs>
       <use xlink:href="#EBSHunminjeongeumL-32"/>
      </g>
     </g>
    </g>
    <g id="xtick_2">
     <g id="line2d_2">
      <g>
       <use xlink:href="#m4b07479f3f" x="170.672727" y="252" style="stroke: #000000; stroke-width: 0.8"/>
      </g>
     </g>
     <g id="text_2">
      <!-- 4 -->
      <g transform="translate(167.747727 265.914062)scale(0.1 -0.1)">
       <defs>
        <path id="EBSHunminjeongeumL-34" d="M 3606 975 
Q 3606 950 3588 950 
L 2981 950 
L 2981 -213 
Q 2981 -238 2963 -238 
L 2538 -238 
Q 2519 -238 2519 -213 
L 2519 950 
L 1188 950 
Q 800 950 556 1134 
Q 313 1319 313 1719 
Q 313 1731 316 1756 
Q 319 1781 331 1856 
Q 338 1931 356 2072 
Q 375 2213 413 2456 
Q 450 2700 506 3065 
Q 563 3431 644 3963 
Q 644 3988 650 3988 
L 1075 3938 
Q 1106 3919 1106 3913 
Q 1106 3906 1090 3803 
Q 1075 3700 1050 3531 
Q 1025 3363 994 3147 
Q 963 2931 925 2713 
Q 888 2488 853 2272 
Q 819 2056 794 1888 
Q 756 1644 840 1509 
Q 925 1375 1188 1363 
L 2519 1363 
L 2519 2588 
Q 2519 2613 2538 2613 
L 2963 2613 
Q 2981 2613 2981 2588 
L 2981 1363 
L 3588 1363 
Q 3606 1363 3606 1338 
L 3606 975 
z
" transform="scale(0.015625)"/>
       </defs>
       <use xlink:href="#EBSHunminjeongeumL-34"/>
      </g>
     </g>
    </g>
    <g id="xtick_3">
     <g id="line2d_3">
      <g>
       <use xlink:href="#m4b07479f3f" x="238.309091" y="252" style="stroke: #000000; stroke-width: 0.8"/>
      </g>
     </g>
     <g id="text_3">
      <!-- 6 -->
      <g transform="translate(235.237997 265.914062)scale(0.1 -0.1)">
       <defs>
        <path id="EBSHunminjeongeumL-36" d="M 2563 2238 
Q 2744 2238 2922 2178 
Q 3100 2119 3238 2000 
Q 3375 1881 3459 1709 
Q 3544 1538 3544 1313 
L 3544 688 
Q 3544 400 3444 222 
Q 3344 44 3188 -63 
Q 3025 -163 2828 -200 
Q 2631 -238 2438 -238 
L 1513 -238 
Q 1319 -238 1122 -200 
Q 925 -163 763 -63 
Q 600 44 497 222 
Q 394 400 394 688 
L 394 3063 
Q 394 3350 497 3528 
Q 600 3706 763 3813 
Q 925 3913 1122 3950 
Q 1319 3988 1513 3988 
L 3275 3988 
Q 3294 3988 3294 3963 
L 3294 3600 
Q 3294 3575 3275 3575 
L 1513 3575 
Q 1306 3575 1175 3540 
Q 1044 3506 975 3444 
Q 906 3375 881 3278 
Q 856 3181 856 3063 
L 856 2238 
L 2563 2238 
z
M 3081 1313 
Q 3081 1463 3028 1563 
Q 2975 1663 2900 1725 
Q 2819 1781 2728 1806 
Q 2638 1831 2563 1831 
L 856 1831 
L 856 688 
Q 856 563 881 469 
Q 906 375 975 313 
Q 1044 244 1175 209 
Q 1306 175 1513 175 
L 2438 175 
Q 2644 175 2772 209 
Q 2900 244 2969 313 
Q 3038 375 3059 469 
Q 3081 563 3081 688 
L 3081 1313 
z
" transform="scale(0.015625)"/>
       </defs>
       <use xlink:href="#EBSHunminjeongeumL-36"/>
      </g>
     </g>
    </g>
    <g id="xtick_4">
     <g id="line2d_4">
      <g>
       <use xlink:href="#m4b07479f3f" x="305.945455" y="252" style="stroke: #000000; stroke-width: 0.8"/>
      </g>
     </g>
     <g id="text_4">
      <!-- 8 -->
      <g transform="translate(302.922798 265.914062)scale(0.1 -0.1)">
       <defs>
        <path id="EBSHunminjeongeumL-38" d="M 3419 2719 
Q 3419 2513 3341 2350 
Q 3263 2188 3138 2044 
Q 3319 1900 3431 1700 
Q 3544 1500 3544 1281 
L 3544 688 
Q 3544 219 3306 -9 
Q 3069 -238 2563 -238 
L 1469 -238 
Q 938 -238 634 6 
Q 331 250 331 688 
L 331 1281 
Q 331 1519 447 1712 
Q 563 1906 744 2050 
Q 456 2338 456 2719 
L 456 3063 
Q 456 3288 540 3459 
Q 625 3631 769 3750 
Q 906 3869 1081 3928 
Q 1256 3988 1444 3988 
L 2313 3988 
Q 2844 3988 3131 3741 
Q 3419 3494 3419 3063 
L 3419 2719 
z
M 919 2719 
Q 919 2206 1575 2206 
L 2431 2206 
Q 2563 2206 2659 2225 
Q 2756 2244 2825 2300 
Q 2888 2356 2922 2456 
Q 2956 2556 2956 2719 
L 2956 3063 
Q 2956 3575 2313 3575 
L 1450 3581 
Q 1375 3581 1281 3556 
Q 1188 3531 1113 3475 
Q 1031 3413 975 3313 
Q 919 3213 919 3063 
L 919 2719 
z
M 3081 1281 
Q 3081 1800 2413 1800 
L 1325 1800 
Q 1250 1800 1156 1775 
Q 1063 1750 988 1694 
Q 906 1631 850 1531 
Q 794 1431 794 1281 
L 794 688 
Q 794 425 966 300 
Q 1138 175 1469 175 
L 2563 169 
Q 2694 169 2791 187 
Q 2888 206 2956 263 
Q 3019 319 3050 422 
Q 3081 525 3081 688 
L 3081 1281 
z
" transform="scale(0.015625)"/>
       </defs>
       <use xlink:href="#EBSHunminjeongeumL-38"/>
      </g>
     </g>
    </g>
    <g id="xtick_5">
     <g id="line2d_5">
      <g>
       <use xlink:href="#m4b07479f3f" x="373.581818" y="252" style="stroke: #000000; stroke-width: 0.8"/>
      </g>
     </g>
     <g id="text_5">
      <!-- 10 -->
      <g transform="translate(368.063849 265.914062)scale(0.1 -0.1)">
       <defs>
        <path id="EBSHunminjeongeumL-31" d="M 2644 -213 
Q 2644 -238 2625 -238 
L 600 -238 
Q 581 -238 581 -213 
L 581 150 
Q 581 175 600 175 
L 1519 175 
L 1519 3469 
L 981 3163 
Q 875 3100 769 3044 
Q 663 2988 563 2938 
Q 556 2938 556 2944 
L 550 2950 
L 313 3250 
L 313 3244 
Q 300 3256 309 3265 
Q 319 3275 331 3288 
L 319 3281 
L 1625 3994 
Q 1731 4044 1850 3994 
Q 1969 3944 1981 3819 
L 1981 175 
L 2625 175 
Q 2644 175 2644 150 
L 2644 -213 
z
" transform="scale(0.015625)"/>
        <path id="EBSHunminjeongeumL-30" d="M 2563 3988 
Q 2881 3988 3084 3925 
Q 3288 3863 3406 3738 
Q 3519 3613 3562 3431 
Q 3606 3250 3606 3013 
L 3606 738 
Q 3606 469 3553 281 
Q 3500 94 3381 -25 
Q 3256 -138 3056 -188 
Q 2856 -238 2563 -238 
L 1500 -238 
Q 1206 -238 1006 -188 
Q 806 -138 688 -25 
Q 563 94 509 281 
Q 456 469 456 738 
L 456 3013 
Q 456 3250 500 3431 
Q 544 3613 663 3738 
Q 775 3863 978 3925 
Q 1181 3988 1500 3988 
L 2563 3988 
z
M 3144 3000 
Q 3144 3144 3122 3253 
Q 3100 3363 3038 3438 
Q 2975 3506 2862 3540 
Q 2750 3575 2563 3575 
L 1500 3575 
Q 1306 3575 1190 3540 
Q 1075 3506 1019 3438 
Q 956 3363 937 3253 
Q 919 3144 919 3000 
L 919 750 
Q 919 606 941 497 
Q 963 388 1031 319 
Q 1094 244 1206 209 
Q 1319 175 1500 175 
L 2563 175 
Q 2756 175 2868 209 
Q 2981 244 3044 319 
Q 3106 388 3125 497 
Q 3144 606 3144 750 
L 3144 3000 
z
" transform="scale(0.015625)"/>
       </defs>
       <use xlink:href="#EBSHunminjeongeumL-31"/>
       <use xlink:href="#EBSHunminjeongeumL-30" x="46.875"/>
      </g>
     </g>
    </g>
   </g>
   <g id="matplotlib.axis_2">
    <g id="ytick_1">
     <g id="line2d_6">
      <defs>
       <path id="md2a90cbb35" d="M 0 0 
L -3.5 0 
" style="stroke: #000000; stroke-width: 0.8"/>
      </defs>
      <g>
       <use xlink:href="#md2a90cbb35" x="54" y="236.625455" style="stroke: #000000; stroke-width: 0.8"/>
      </g>
     </g>
     <g id="text_6">
      <!-- 2.5 -->
      <g transform="translate(33.31875 240.082486)scale(0.1 -0.1)">
       <defs>
        <path id="EBSHunminjeongeumL-2e" d="M 938 0 
Q 938 -156 834 -259 
Q 731 -363 563 -363 
Q 394 -363 291 -259 
Q 188 -156 188 0 
Q 188 156 291 259 
Q 394 363 563 363 
Q 731 363 834 259 
Q 938 156 938 0 
z
" transform="scale(0.015625)"/>
        <path id="EBSHunminjeongeumL-35" d="M 2331 2238 
Q 2519 2238 2697 2178 
Q 2875 2119 3019 2000 
Q 3156 1881 3240 1709 
Q 3325 1538 3325 1313 
L 3325 688 
Q 3325 400 3222 222 
Q 3119 44 2956 -63 
Q 2794 -163 2594 -200 
Q 2394 -238 2200 -238 
L 381 -238 
Q 363 -238 363 -213 
L 363 150 
Q 363 175 381 175 
L 2200 175 
Q 2406 175 2537 209 
Q 2669 244 2744 313 
Q 2813 375 2838 469 
Q 2863 563 2863 688 
L 2863 1313 
Q 2863 1463 2806 1563 
Q 2750 1663 2675 1719 
Q 2594 1775 2500 1800 
Q 2406 1825 2331 1825 
L 625 1825 
Q 525 1825 459 1881 
Q 394 1938 394 2025 
L 394 3750 
Q 394 3844 466 3916 
Q 538 3988 625 3988 
L 3056 3988 
Q 3075 3988 3075 3963 
L 3075 3600 
Q 3075 3575 3056 3575 
L 856 3575 
L 856 2238 
L 2331 2238 
z
" transform="scale(0.015625)"/>
       </defs>
       <use xlink:href="#EBSHunminjeongeumL-32"/>
       <use xlink:href="#EBSHunminjeongeumL-2e" x="59.472656"/>
       <use xlink:href="#EBSHunminjeongeumL-35" x="78.515625"/>
      </g>
     </g>
    </g>
    <g id="ytick_2">
     <g id="line2d_7">
      <g>
       <use xlink:href="#md2a90cbb35" x="54" y="209.170909" style="stroke: #000000; stroke-width: 0.8"/>
      </g>
     </g>
     <g id="text_7">
      <!-- 5.0 -->
      <g transform="translate(32.917187 212.62794)scale(0.1 -0.1)">
       <use xlink:href="#EBSHunminjeongeumL-35"/>
       <use xlink:href="#EBSHunminjeongeumL-2e" x="58.300781"/>
       <use xlink:href="#EBSHunminjeongeumL-30" x="77.34375"/>
      </g>
     </g>
    </g>
    <g id="ytick_3">
     <g id="line2d_8">
      <g>
       <use xlink:href="#md2a90cbb35" x="54" y="181.716364" style="stroke: #000000; stroke-width: 0.8"/>
      </g>
     </g>
     <g id="text_8">
      <!-- 7.5 -->
      <g transform="translate(33.815625 185.173395)scale(0.1 -0.1)">
       <defs>
        <path id="EBSHunminjeongeumL-37" d="M 3063 3988 
Q 3175 3988 3250 3906 
Q 3325 3825 3275 3719 
L 3281 3719 
L 1231 -213 
Q 1219 -244 1200 -225 
L 1006 -144 
L 825 -63 
Q 800 -38 819 -6 
L 2688 3575 
L 288 3575 
Q 269 3575 269 3600 
L 269 3963 
Q 269 3988 288 3988 
L 3063 3988 
z
" transform="scale(0.015625)"/>
       </defs>
       <use xlink:href="#EBSHunminjeongeumL-37"/>
       <use xlink:href="#EBSHunminjeongeumL-2e" x="54.492188"/>
       <use xlink:href="#EBSHunminjeongeumL-35" x="73.535156"/>
      </g>
     </g>
    </g>
    <g id="ytick_4">
     <g id="line2d_9">
      <g>
       <use xlink:href="#md2a90cbb35" x="54" y="154.261818" style="stroke: #000000; stroke-width: 0.8"/>
      </g>
     </g>
     <g id="text_9">
      <!-- 10.0 -->
      <g transform="translate(27.710938 157.718849)scale(0.1 -0.1)">
       <use xlink:href="#EBSHunminjeongeumL-31"/>
       <use xlink:href="#EBSHunminjeongeumL-30" x="46.875"/>
       <use xlink:href="#EBSHunminjeongeumL-2e" x="110.351562"/>
       <use xlink:href="#EBSHunminjeongeumL-30" x="129.394531"/>
      </g>
     </g>
    </g>
    <g id="ytick_5">
     <g id="line2d_10">
      <g>
       <use xlink:href="#md2a90cbb35" x="54" y="126.807273" style="stroke: #000000; stroke-width: 0.8"/>
      </g>
     </g>
     <g id="text_10">
      <!-- 12.5 -->
      <g transform="translate(28.63125 130.264304)scale(0.1 -0.1)">
       <use xlink:href="#EBSHunminjeongeumL-31"/>
       <use xlink:href="#EBSHunminjeongeumL-32" x="46.875"/>
       <use xlink:href="#EBSHunminjeongeumL-2e" x="106.347656"/>
       <use xlink:href="#EBSHunminjeongeumL-35" x="125.390625"/>
      </g>
     </g>
    </g>
    <g id="ytick_6">
     <g id="line2d_11">
      <g>
       <use xlink:href="#md2a90cbb35" x="54" y="99.352727" style="stroke: #000000; stroke-width: 0.8"/>
      </g>
     </g>
     <g id="text_11">
      <!-- 15.0 -->
      <g transform="translate(28.229688 102.809759)scale(0.1 -0.1)">
       <use xlink:href="#EBSHunminjeongeumL-31"/>
       <use xlink:href="#EBSHunminjeongeumL-35" x="46.875"/>
       <use xlink:href="#EBSHunminjeongeumL-2e" x="105.175781"/>
       <use xlink:href="#EBSHunminjeongeumL-30" x="124.21875"/>
      </g>
     </g>
    </g>
    <g id="ytick_7">
     <g id="line2d_12">
      <g>
       <use xlink:href="#md2a90cbb35" x="54" y="71.898182" style="stroke: #000000; stroke-width: 0.8"/>
      </g>
     </g>
     <g id="text_12">
      <!-- 17.5 -->
      <g transform="translate(29.128125 75.355213)scale(0.1 -0.1)">
       <use xlink:href="#EBSHunminjeongeumL-31"/>
       <use xlink:href="#EBSHunminjeongeumL-37" x="46.875"/>
       <use xlink:href="#EBSHunminjeongeumL-2e" x="101.367188"/>
       <use xlink:href="#EBSHunminjeongeumL-35" x="120.410156"/>
      </g>
     </g>
    </g>
    <g id="ytick_8">
     <g id="line2d_13">
      <g>
       <use xlink:href="#md2a90cbb35" x="54" y="44.443636" style="stroke: #000000; stroke-width: 0.8"/>
      </g>
     </g>
     <g id="text_13">
      <!-- 20.0 -->
      <g transform="translate(26.451562 47.900668)scale(0.1 -0.1)">
       <use xlink:href="#EBSHunminjeongeumL-32"/>
       <use xlink:href="#EBSHunminjeongeumL-30" x="59.472656"/>
       <use xlink:href="#EBSHunminjeongeumL-2e" x="122.949219"/>
       <use xlink:href="#EBSHunminjeongeumL-30" x="141.992188"/>
      </g>
     </g>
    </g>
   </g>
   <g id="line2d_14">
    <path d="M 69.218182 242.116364 
L 103.036364 220.152727 
L 136.854545 198.189091 
L 170.672727 176.225455 
L 204.490909 154.261818 
L 238.309091 132.298182 
L 272.127273 110.334545 
L 305.945455 88.370909 
L 339.763636 66.407273 
L 373.581818 44.443636 
" clip-path="url(#pd7f5c37bdf)" style="fill: none; stroke: #1f77b4; stroke-width: 1.5; stroke-linecap: square"/>
   </g>
   <g id="patch_3">
    <path d="M 54 252 
L 54 34.56 
" style="fill: none; stroke: #000000; stroke-width: 0.8; stroke-linejoin: miter; stroke-linecap: square"/>
   </g>
   <g id="patch_4">
    <path d="M 388.8 252 
L 388.8 34.56 
" style="fill: none; stroke: #000000; stroke-width: 0.8; stroke-linejoin: miter; stroke-linecap: square"/>
   </g>
   <g id="patch_5">
    <path d="M 54 252 
L 388.8 252 
" style="fill: none; stroke: #000000; stroke-width: 0.8; stroke-linejoin: miter; stroke-linecap: square"/>
   </g>
   <g id="patch_6">
    <path d="M 54 34.56 
L 388.8 34.56 
" style="fill: none; stroke: #000000; stroke-width: 0.8; stroke-linejoin: miter; stroke-linecap: square"/>
   </g>
  </g>
 </g>
 <defs>
  <clipPath id="pd7f5c37bdf">
   <rect x="54" y="34.56" width="334.8" height="217.44"/>
  </clipPath>
 </defs>
</svg>
